HIERARCHY
ROOT Hips
{
 OFFSET 0.000000 0.000000 0.000000
 CHANNELS 6 Xposition Yposition Zposition Yrotation Xrotation Zrotation
 JOINT Chest
 {
  OFFSET 0.000000 9.585900 0.002600
  CHANNELS 3 Yrotation Xrotation Zrotation
  JOINT Chest2
  {
   OFFSET 0.000000 9.601200 -0.005300
   CHANNELS 3 Yrotation Xrotation Zrotation
   JOINT Chest3
   {
    OFFSET 0.000000 9.561800 0.000000
    CHANNELS 3 Yrotation Xrotation Zrotation
    JOINT Chest4
    {
     OFFSET 0.000000 9.552100 0.000000
     CHANNELS 3 Yrotation Xrotation Zrotation
     JOINT Neck
     {
      OFFSET 0.000000 14.453000 0.000000
      CHANNELS 3 Yrotation Xrotation Zrotation
      JOINT Head
      {
       OFFSET 0.000000 8.936500 -0.011300
       CHANNELS 3 Yrotation Xrotation Zrotation
       End Site
       {
        OFFSET 0.000000 17.073600 -0.006000
       }
      }
     }
     JOINT RightCollar
     {
      OFFSET -2.921100 9.558500 0.000000
      CHANNELS 3 Yrotation Xrotation Zrotation
      JOINT RightShoulder
      {
       OFFSET -13.519700 0.000000 0.000000
       CHANNELS 3 Yrotation Xrotation Zrotation
       JOINT RightElbow
       {
        OFFSET 0.000000 -29.696600 0.000000
        CHANNELS 3 Yrotation Xrotation Zrotation
        JOINT RightWrist
        {
         OFFSET 0.000000 -24.004700 0.000000
         CHANNELS 3 Yrotation Xrotation Zrotation
         End Site
         {
          OFFSET 0.000000 -17.728500 0.000000
         }
        }
       }
      }
     }
     JOINT LeftCollar
     {
      OFFSET 2.921100 9.558500 0.000000
      CHANNELS 3 Yrotation Xrotation Zrotation
      JOINT LeftShoulder
      {
       OFFSET 13.519700 0.000000 0.000000
       CHANNELS 3 Yrotation Xrotation Zrotation
       JOINT LeftElbow
       {
        OFFSET 0.000000 -29.696600 0.000000
        CHANNELS 3 Yrotation Xrotation Zrotation
        JOINT LeftWrist
        {
         OFFSET 0.000000 -24.004700 0.000000
         CHANNELS 3 Yrotation Xrotation Zrotation
         End Site
         {
          OFFSET 0.000000 -17.728500 0.000000
         }
        }
       }
      }
     }
    }
   }
  }
 }
 JOINT RightHip
 {
  OFFSET -7.771700 -0.012900 -0.001300
  CHANNELS 3 Yrotation Xrotation Zrotation
  JOINT RightKnee
  {
   OFFSET 0.000000 -40.869800 0.001200
   CHANNELS 3 Yrotation Xrotation Zrotation
   JOINT RightAnkle
   {
    OFFSET 0.000000 -39.717900 0.002100
    CHANNELS 3 Yrotation Xrotation Zrotation
    JOINT RightToe
    {
     OFFSET 0.000000 -4.965400 11.033500
     CHANNELS 3 Yrotation Xrotation Zrotation
     End Site
     {
      OFFSET 0.000000 -1.423100 5.872300
     }
    }
   }
  }
 }
 JOINT LeftHip
 {
  OFFSET 7.771700 -0.012900 -0.001300
  CHANNELS 3 Yrotation Xrotation Zrotation
  JOINT LeftKnee
  {
   OFFSET 0.000000 -40.869800 0.001200
   CHANNELS 3 Yrotation Xrotation Zrotation
   JOINT LeftAnkle
   {
    OFFSET 0.000000 -39.717900 0.002100
    CHANNELS 3 Yrotation Xrotation Zrotation
    JOINT LeftToe
    {
     OFFSET 0.000000 -4.965400 11.033500
     CHANNELS 3 Yrotation Xrotation Zrotation
     End Site
     {
      OFFSET 0.000000 -1.423100 5.872300
     }
    }
   }
  }
 }
}
MOTION
Frames: 12
Frame Time: 0.008333
-1.575097 52.184979 35.002126 170.899662 -36.511267 -2.252202 3.264474 22.667900 2.334632 0.389493 3.282479 0.436547 0.619271 5.343731 0.719463 2.653535 19.110895 2.945747 1.511173 16.278868 -0.164959 2.811209 -5.468693 -0.794152 -4.877155 -2.046703 -5.753898 2.832975 -11.616872 -2.425282 172.689561 -43.227759 -156.306831 2.986373 -17.369208 -18.755064 -5.343964 -1.982548 0.902110 1.307357 -10.975994 5.617043 170.389775 -46.457473 171.040901 -8.598875 -22.274936 27.028532 -4.809960 -44.643906 4.174293 -149.733338 85.877498 -145.296503 -0.581125 -11.319988 -2.878976 0.456465 -0.677238 0.228063 0.530016 -41.308576 5.820529 70.550964 83.461370 60.416452 -5.266450 -11.801188 10.421954 0.311460 1.507106 0.146354
-1.577571 52.183786 35.007188 170.883982 -36.492083 -2.258932 3.256002 22.705334 2.341493 0.378922 3.310892 0.438013 0.639393 5.300568 0.716470 2.628008 19.190156 2.951185 1.529081 16.181606 -0.181169 2.794887 -5.607468 -0.772788 -4.840330 -2.128883 -5.766196 2.995686 -11.607881 -2.379738 172.041198 -43.481781 -155.742805 3.067839 -17.237722 -18.699358 -5.322221 -2.068860 0.882626 1.210908 -10.942616 5.622791 170.532425 -46.742060 170.896704 -8.644702 -22.049995 26.812027 -4.822083 -44.661614 4.201691 -149.640005 85.885812 -145.203013 -0.582520 -11.313301 -2.884544 0.460173 -0.674346 0.226619 0.546173 -41.327237 5.831457 70.526337 83.450309 60.400268 -5.287099 -11.804008 10.418971 0.331374 1.517505 0.154606
-1.581398 52.184766 35.011647 170.876395 -36.481258 -2.263019 3.244007 22.762764 2.343958 0.378233 3.325433 0.439334 0.647646 5.261830 0.713516 2.611918 19.285099 2.960591 1.521454 16.086936 -0.183448 2.787760 -5.764442 -0.772069 -4.827087 -2.210980 -5.774354 3.118613 -11.604168 -2.306482 171.359572 -43.673718 -155.130763 3.186694 -17.155302 -18.681215 -5.321858 -2.148650 0.858420 1.161449 -10.929502 5.621612 170.713696 -46.988971 170.718822 -8.695424 -21.914852 26.615804 -4.831835 -44.669553 4.217250 -149.574174 85.894548 -145.139812 -0.586383 -11.307618 -2.883137 0.460218 -0.673549 0.219505 0.558459 -41.336026 5.831405 70.504137 83.436233 60.384877 -5.305223 -11.804629 10.412721 0.340861 1.524516 0.162945
-1.585768 52.186652 35.017261 170.879545 -36.464120 -2.271854 3.234043 22.782911 2.348303 0.369716 3.382632 0.444511 0.628934 5.365227 0.721384 2.624119 19.246230 2.952208 1.484596 16.022312 -0.162463 2.798864 -5.984206 -0.804043 -4.827999 -2.324369 -5.786191 3.211143 -11.577397 -2.203180 170.675233 -43.810551 -154.502209 3.328900 -17.132539 -18.690783 -5.309589 -2.256913 0.838923 1.123320 -10.906168 5.600554 170.908558 -47.204953 170.525198 -8.745839 -21.869261 26.440232 -4.859464 -44.680240 4.232133 -149.470874 85.907353 -145.041837 -0.581359 -11.301910 -2.885338 0.458457 -0.672000 0.211991 0.563938 -41.349023 5.827032 70.473341 83.409616 60.364005 -5.335839 -11.806897 10.394663 0.353172 1.537118 0.179497
-1.587830 52.189494 35.024250 170.868862 -36.441070 -2.287441 3.242836 22.798703 2.369923 0.362422 3.441689 0.451275 0.626734 5.423127 0.727451 2.627760 19.256901 2.951502 1.464169 15.932645 -0.156805 2.805822 -6.125674 -0.834866 -4.840598 -2.457951 -5.802213 3.296002 -11.531352 -2.078040 170.022586 -43.904171 -153.901128 3.477207 -17.163062 -18.720521 -5.285368 -2.343135 0.838400 1.093008 -10.916378 5.549090 171.098916 -47.391324 170.334155 -8.802552 -21.878525 26.287964 -4.918136 -44.691629 4.271983 -149.287977 85.923720 -144.867190 -0.551263 -11.289192 -2.907503 0.447954 -0.671800 0.207372 0.556505 -41.370248 5.849937 70.446774 83.392665 60.340844 -5.354021 -11.803876 10.387094 0.366301 1.537445 0.179768
-1.592284 52.193334 35.030960 170.852908 -36.415204 -2.285393 3.240535 22.855313 2.378272 0.368180 3.455065 0.450744 0.629959 5.449835 0.730533 2.634205 19.296581 2.956386 1.445451 15.833938 -0.160213 2.799820 -6.254496 -0.848570 -4.884705 -2.602630 -5.841391 3.405507 -11.467139 -1.917166 169.438700 -43.964938 -153.373102 3.609726 -17.224712 -18.757711 -5.264665 -2.468304 0.846407 1.069773 -10.889421 5.486871 171.279484 -47.549596 170.155124 -8.855920 -21.894472 26.149518 -4.922534 -44.713302 4.283544 -149.125588 85.934863 -144.702705 -0.551981 -11.277014 -2.912445 0.453898 -0.674324 0.206234 0.578561 -41.393209 5.841296 70.395685 83.370721 60.303019 -5.372992 -11.795121 10.381316 0.374416 1.535302 0.181890
-1.594727 52.198524 35.037253 170.809486 -36.392232 -2.278569 3.269636 22.909971 2.398195 0.374385 3.464867 0.451183 0.634568 5.473568 0.733358 2.646121 19.331276 2.961645 1.427809 15.717322 -0.171928 2.717405 -6.487477 -0.815788 -4.904296 -2.764974 -5.874000 3.491127 -11.368331 -1.760256 168.959977 -44.007032 -152.949656 3.711634 -17.295015 -18.794240 -5.252066 -2.584838 0.864996 1.052512 -10.868047 5.415708 171.436289 -47.685121 169.999473 -8.892099 -21.889076 26.016918 -4.943579 -44.727207 4.326580 -149.020322 85.956350 -144.612519 -0.551401 -11.273338 -2.907885 0.451387 -0.666537 0.192370 0.607542 -41.415339 5.850662 70.379679 83.358083 60.301413 -5.382344 -11.784159 10.370578 0.381806 1.523178 0.184828
-1.595841 52.206412 35.040390 170.749143 -36.389409 -2.266934 3.314315 23.029838 2.425521 0.388085 3.403503 0.448227 0.638151 5.514844 0.737560 2.661715 19.360734 2.967159 1.405730 15.610935 -0.181749 2.655709 -6.648171 -0.808231 -4.921822 -2.918476 -5.901866 3.565549 -11.277025 -1.615759 168.611511 -44.047066 -152.643064 3.777857 -17.361878 -18.833347 -5.246987 -2.700835 0.887170 1.044989 -10.846687 5.344282 171.544290 -47.798431 169.882469 -8.906493 -21.859438 25.891353 -4.954353 -44.722479 4.367857 -148.819409 85.969056 -144.420714 -0.518391 -11.258207 -2.912653 0.419954 -0.674755 0.181170 0.641497 -41.414318 5.856872 70.353255 83.330083 60.289838 -5.344825 -11.752123 10.370038 0.352436 1.484924 0.164372
-1.598840 52.210398 35.048161 170.712961 -36.343050 -2.263665 3.339323 23.070105 2.443031 0.398767 3.336249 0.445010 0.638167 5.594244 0.744179 2.677962 19.386314 2.972383 1.382859 15.535343 -0.186151 2.605163 -6.803770 -0.820922 -4.934209 -3.052618 -5.913116 3.628010 -11.217899 -1.500828 168.392816 -44.093918 -152.447266 3.808646 -17.417172 -18.882942 -5.250334 -2.821685 0.897672 1.051052 -10.822571 5.289244 171.586926 -47.888365 169.814295 -8.899659 -21.812427 25.780931 -4.980751 -44.763940 4.397899 -148.445666 85.972703 -144.042712 -0.494035 -11.235951 -2.934914 0.432124 -0.683539 0.179854 0.650845 -41.458776 5.863990 70.308904 83.311670 60.254199 -5.331074 -11.746808 10.356037 0.350271 1.480081 0.164571
-1.603114 52.215913 35.052596 170.689338 -36.311856 -2.257865 3.353776 23.090474 2.448917 0.393784 3.422413 0.450088 0.650063 5.504873 0.738744 2.685863 19.398181 2.974827 1.363018 15.521458 -0.186220 2.559188 -6.962670 -0.838506 -4.938153 -3.153315 -5.954719 3.676312 -11.155786 -1.364411 168.286755 -44.143705 -152.345354 3.811395 -17.454874 -18.953483 -5.243395 -2.888173 0.931015 1.055911 -10.798621 5.217572 171.606952 -47.923985 169.768375 -8.851618 -21.734051 25.699861 -5.001299 -44.785728 4.415989 -148.426231 85.992717 -144.033858 -0.483439 -11.232499 -2.930719 0.426384 -0.678046 0.165291 0.654440 -41.487669 5.857708 70.284507 83.294485 60.236771 -5.316014 -11.735131 10.346799 0.350302 1.467776 0.159702
-1.605838 52.221850 35.055436 170.670009 -36.286769 -2.262620 3.372709 23.081317 2.464354 0.387959 3.487608 0.451619 0.657825 5.469543 0.738393 2.693571 19.408641 2.977307 1.327327 15.506196 -0.193810 2.558517 -7.062929 -0.851402 -4.929217 -3.305747 -6.035355 3.702313 -11.069521 -1.198981 168.268367 -44.189632 -152.320826 3.793632 -17.478336 -19.047471 -5.240190 -2.967361 0.967833 1.054084 -10.775451 5.150990 171.612698 -47.968075 169.745216 -8.804843 -21.695030 25.678452 -5.030209 -44.801260 4.440797 -148.267930 86.005360 -143.878292 -0.462437 -11.217719 -2.941594 0.418862 -0.688376 0.164067 0.650447 -41.511062 5.868477 70.253007 83.287394 60.212062 -5.310941 -11.721726 10.336755 0.359853 1.453955 0.160954
-1.608204 52.227787 35.056622 170.652156 -36.266366 -2.268422 3.384555 23.117189 2.476853 0.393186 3.468640 0.452851 0.660305 5.502926 0.739044 2.709020 19.420459 2.979928 1.303376 15.411999 -0.202556 2.507604 -7.201875 -0.863388 -4.923196 -3.476226 -6.092327 3.725218 -11.024897 -1.069440 168.303930 -44.226664 -152.356317 3.760728 -17.496149 -19.156852 -5.243053 -3.085435 1.002447 1.046483 -10.750853 5.102227 171.561196 -48.028261 169.780140 -8.809925 -21.713654 25.723142 -5.057346 -44.809943 4.463197 -148.152982 86.017305 -143.764891 -0.441479 -11.210104 -2.952231 0.408170 -0.694288 0.163230 0.645576 -41.529855 5.879937 70.242066 83.282387 60.208800 -5.309921 -11.710646 10.327694 0.366521 1.440804 0.161819
